<svg xmlns="http://www.w3.org/2000/svg" width="0" height="0" style="position:absolute;width:0;height:0"><defs><symbol id="icon-info-with-circle" viewBox="0 0 1024 1024"><title>info-with-circle</title><path d="M512 20.48C240.486 20.48 20.43 240.538 20.43 512c0 271.514 220.057 491.57 491.57 491.57 271.41 0 491.52-220.057 491.52-491.57 0-271.462-220.11-491.52-491.52-491.52zm45.875 177.46c47.923 0 62.003 27.8 62.003 59.596 0 39.68-31.744 76.39-85.965 76.39-45.363 0-66.97-22.784-65.638-60.518 0-31.795 26.573-75.47 89.6-75.47zM435.098 806.4c-32.768 0-56.678-19.917-33.792-107.213l37.53-154.88c6.502-24.78 7.578-34.714 0-34.714-9.78 0-52.326 17.1-77.414 33.997l-16.333-26.778c79.615-66.51 171.16-105.523 210.33-105.523 32.767 0 38.194 38.706 21.86 98.303L534.274 672.41c-7.63 28.773-4.352 38.706 3.277 38.706 9.83 0 41.984-11.878 73.626-36.813l18.534 24.883C552.244 776.6 467.816 806.4 435.1 806.4z" class="path1"/></symbol><symbol id="icon-twitter-square" viewBox="0 0 878 1024"><title>twitter-square</title><path d="M731.43 348.57q-32 14.287-69.144 19.43 38.857-22.857 53.143-66.857-37.144 21.714-76.572 29.143-34.857-37.714-87.43-37.714-49.713 0-84.856 35.143t-35.143 84.857q0 16.57 2.856 27.43-73.714-4-138.286-37.144t-109.714-88.57q-16.57 28.57-16.57 60.57 0 65.143 52 100-26.858-.57-57.144-14.857v1.144q0 42.857 28.57 76.286t70.287 41.43q-16.572 4.57-29.144 4.57-7.43 0-22.286-2.286 12 36 42.57 59.43t69.43 24Q257.714 716 174.857 716q-14.857 0-28.57-1.714 84.57 53.714 184 53.714 64 0 120-20.286t96-54.286 68.856-78.286T658 522.574t14-96.287q0-10.286-.57-15.43 36-25.713 60-62.285zm146.284-110.856v548.57q0 68-48.286 116.287t-116.286 48.287h-548.57q-68 0-116.287-48.286T0 786.286v-548.57q0-68 48.285-116.287T164.57 73.142h548.572q68 0 116.286 48.286t48.286 116.286z" class="path1"/></symbol><symbol id="icon-facebook-square" viewBox="0 0 878 1024"><title>facebook-square</title><path d="M713.143 73.143q68 0 116.286 48.286t48.285 116.285v548.57q0 68-48.286 116.287t-116.287 48.286h-107.43v-340H719.43l17.143-132.57H605.715v-84.572q0-32 13.43-48t52.285-16l69.713-.57V210.858q-36-5.144-101.714-5.144-77.715 0-124.287 45.714t-46.57 129.143v97.714H354.285v132.57h114.286v340h-304q-68 0-116.286-48.285T0 786.286v-548.57q0-68 48.286-116.287t116.286-48.287h548.57z" class="path1"/></symbol></defs></svg>